<mxfile host="app.diagrams.net" agent="Mozilla/5.0 (Windows NT 10.0; Win64; x64) AppleWebKit/537.36 (KHTML, like Gecko) Chrome/128.0.0.0 Safari/537.36 OPR/114.0.0.0" version="24.8.8">
  <diagram name="Página-1" id="UAwYXZ_2hnUKwbwkQpBd">
    <mxGraphModel dx="1965" dy="1292" grid="1" gridSize="10" guides="1" tooltips="1" connect="1" arrows="1" fold="1" page="1" pageScale="1" pageWidth="827" pageHeight="1169" math="0" shadow="0">
      <root>
        <mxCell id="0" />
        <mxCell id="1" parent="0" />
        <mxCell id="NXyp24lHpLye-iFpDave-1" value="Inicio" style="whiteSpace=wrap;strokeWidth=2;fillColor=#dae8fc;strokeColor=#6c8ebf;" vertex="1" parent="1">
          <mxGeometry x="359" y="27" width="99" height="49" as="geometry" />
        </mxCell>
        <mxCell id="NXyp24lHpLye-iFpDave-2" value="Seleccionar algoritmo FIFO o SJF" style="whiteSpace=wrap;strokeWidth=2;fillColor=#f5f5f5;fontColor=#333333;strokeColor=#666666;" vertex="1" parent="1">
          <mxGeometry x="282" y="126" width="253" height="66" as="geometry" />
        </mxCell>
        <mxCell id="NXyp24lHpLye-iFpDave-3" value="Algoritmo seleccionado?" style="rhombus;strokeWidth=2;whiteSpace=wrap;fillColor=#fff2cc;strokeColor=#d6b656;" vertex="1" parent="1">
          <mxGeometry x="297" y="242" width="222" height="115" as="geometry" />
        </mxCell>
        <mxCell id="NXyp24lHpLye-iFpDave-4" value="Ordenar procesos por tiempo de llegada" style="whiteSpace=wrap;strokeWidth=2;fillColor=#ffe6cc;strokeColor=#d79b00;" vertex="1" parent="1">
          <mxGeometry x="165" y="414" width="214" height="66" as="geometry" />
        </mxCell>
        <mxCell id="NXyp24lHpLye-iFpDave-5" value="Seleccionar proceso con menor duración" style="whiteSpace=wrap;strokeWidth=2;fillColor=#ffe6cc;strokeColor=#d79b00;" vertex="1" parent="1">
          <mxGeometry x="429" y="414" width="233" height="66" as="geometry" />
        </mxCell>
        <mxCell id="NXyp24lHpLye-iFpDave-6" value="Simular ejecución en orden SJF" style="whiteSpace=wrap;strokeWidth=2;fillColor=#f5f5f5;fontColor=#333333;strokeColor=#666666;" vertex="1" parent="1">
          <mxGeometry x="280" y="530" width="257" height="66" as="geometry" />
        </mxCell>
        <mxCell id="NXyp24lHpLye-iFpDave-7" value="Actualizar tiempos de inicio, fin, espera y turnaround" style="whiteSpace=wrap;strokeWidth=2;fillColor=#f5f5f5;fontColor=#333333;strokeColor=#666666;" vertex="1" parent="1">
          <mxGeometry x="300" y="646" width="217" height="84" as="geometry" />
        </mxCell>
        <mxCell id="NXyp24lHpLye-iFpDave-8" value="Mostrar resultados en tabla" style="whiteSpace=wrap;strokeWidth=2;fillColor=#f5f5f5;fontColor=#333333;strokeColor=#666666;" vertex="1" parent="1">
          <mxGeometry x="280" y="780" width="257" height="49" as="geometry" />
        </mxCell>
        <mxCell id="NXyp24lHpLye-iFpDave-9" value="Calcular promedios de espera y turnaround" style="whiteSpace=wrap;strokeWidth=2;fillColor=#f5f5f5;fontColor=#333333;strokeColor=#666666;" vertex="1" parent="1">
          <mxGeometry x="298" y="879" width="220" height="66" as="geometry" />
        </mxCell>
        <mxCell id="NXyp24lHpLye-iFpDave-10" value="Mostrar promedios" style="whiteSpace=wrap;strokeWidth=2;fillColor=#f5f5f5;fontColor=#333333;strokeColor=#666666;" vertex="1" parent="1">
          <mxGeometry x="312" y="995" width="194" height="49" as="geometry" />
        </mxCell>
        <mxCell id="NXyp24lHpLye-iFpDave-11" value="Fin" style="whiteSpace=wrap;strokeWidth=2;fillColor=#dae8fc;strokeColor=#6c8ebf;" vertex="1" parent="1">
          <mxGeometry x="368" y="1094" width="82" height="49" as="geometry" />
        </mxCell>
        <mxCell id="NXyp24lHpLye-iFpDave-12" value="" style="curved=1;startArrow=none;endArrow=block;exitX=0.5;exitY=0.99;entryX=0.5;entryY=-0.01;rounded=0;fillColor=#f5f5f5;strokeColor=#666666;" edge="1" parent="1" source="NXyp24lHpLye-iFpDave-1" target="NXyp24lHpLye-iFpDave-2">
          <mxGeometry relative="1" as="geometry">
            <Array as="points" />
          </mxGeometry>
        </mxCell>
        <mxCell id="NXyp24lHpLye-iFpDave-13" value="" style="curved=1;startArrow=none;endArrow=block;exitX=0.5;exitY=1;entryX=0.5;entryY=0;rounded=0;fillColor=#f5f5f5;strokeColor=#666666;" edge="1" parent="1" source="NXyp24lHpLye-iFpDave-2" target="NXyp24lHpLye-iFpDave-3">
          <mxGeometry relative="1" as="geometry">
            <Array as="points" />
          </mxGeometry>
        </mxCell>
        <mxCell id="NXyp24lHpLye-iFpDave-14" value="FIFO" style="startArrow=none;endArrow=block;exitX=0.04;exitY=1;entryX=0.5;entryY=0;rounded=0;fillColor=#ffe6cc;strokeColor=#d79b00;" edge="1" parent="1" source="NXyp24lHpLye-iFpDave-3" target="NXyp24lHpLye-iFpDave-4">
          <mxGeometry relative="1" as="geometry" />
        </mxCell>
        <mxCell id="NXyp24lHpLye-iFpDave-15" value="SJF" style="startArrow=none;endArrow=block;exitX=0.97;exitY=1;entryX=0.5;entryY=0;rounded=0;fillColor=#ffe6cc;strokeColor=#d79b00;" edge="1" parent="1" source="NXyp24lHpLye-iFpDave-3" target="NXyp24lHpLye-iFpDave-5">
          <mxGeometry relative="1" as="geometry" />
        </mxCell>
        <mxCell id="NXyp24lHpLye-iFpDave-16" value="" style="curved=1;startArrow=none;endArrow=block;exitX=0.5;exitY=1;entryX=0.2;entryY=0;rounded=0;fillColor=#f5f5f5;strokeColor=#666666;" edge="1" parent="1" source="NXyp24lHpLye-iFpDave-4" target="NXyp24lHpLye-iFpDave-6">
          <mxGeometry relative="1" as="geometry">
            <Array as="points">
              <mxPoint x="272" y="505" />
            </Array>
          </mxGeometry>
        </mxCell>
        <mxCell id="NXyp24lHpLye-iFpDave-17" value="" style="curved=1;startArrow=none;endArrow=block;exitX=0.5;exitY=1;entryX=0.8;entryY=0;rounded=0;fillColor=#f5f5f5;strokeColor=#666666;" edge="1" parent="1" source="NXyp24lHpLye-iFpDave-5" target="NXyp24lHpLye-iFpDave-6">
          <mxGeometry relative="1" as="geometry">
            <Array as="points">
              <mxPoint x="545" y="505" />
            </Array>
          </mxGeometry>
        </mxCell>
        <mxCell id="NXyp24lHpLye-iFpDave-18" value="" style="curved=1;startArrow=none;endArrow=block;exitX=0.5;exitY=1.01;entryX=0.5;entryY=0;rounded=0;fillColor=#f5f5f5;strokeColor=#666666;" edge="1" parent="1" source="NXyp24lHpLye-iFpDave-6" target="NXyp24lHpLye-iFpDave-7">
          <mxGeometry relative="1" as="geometry">
            <Array as="points" />
          </mxGeometry>
        </mxCell>
        <mxCell id="NXyp24lHpLye-iFpDave-19" value="" style="curved=1;startArrow=none;endArrow=block;exitX=0.5;exitY=1;entryX=0.5;entryY=0;rounded=0;fillColor=#f5f5f5;strokeColor=#666666;" edge="1" parent="1" source="NXyp24lHpLye-iFpDave-7" target="NXyp24lHpLye-iFpDave-8">
          <mxGeometry relative="1" as="geometry">
            <Array as="points" />
          </mxGeometry>
        </mxCell>
        <mxCell id="NXyp24lHpLye-iFpDave-20" value="" style="curved=1;startArrow=none;endArrow=block;exitX=0.5;exitY=1;entryX=0.5;entryY=0;rounded=0;fillColor=#f5f5f5;strokeColor=#666666;" edge="1" parent="1" source="NXyp24lHpLye-iFpDave-8" target="NXyp24lHpLye-iFpDave-9">
          <mxGeometry relative="1" as="geometry">
            <Array as="points" />
          </mxGeometry>
        </mxCell>
        <mxCell id="NXyp24lHpLye-iFpDave-21" value="" style="curved=1;startArrow=none;endArrow=block;exitX=0.5;exitY=1;entryX=0.5;entryY=0;rounded=0;fillColor=#f5f5f5;strokeColor=#666666;" edge="1" parent="1" source="NXyp24lHpLye-iFpDave-9" target="NXyp24lHpLye-iFpDave-10">
          <mxGeometry relative="1" as="geometry">
            <Array as="points" />
          </mxGeometry>
        </mxCell>
        <mxCell id="NXyp24lHpLye-iFpDave-22" value="" style="curved=1;startArrow=none;endArrow=block;exitX=0.5;exitY=1;entryX=0.49;entryY=0;rounded=0;fillColor=#f5f5f5;strokeColor=#666666;" edge="1" parent="1" source="NXyp24lHpLye-iFpDave-10" target="NXyp24lHpLye-iFpDave-11">
          <mxGeometry relative="1" as="geometry">
            <Array as="points" />
          </mxGeometry>
        </mxCell>
      </root>
    </mxGraphModel>
  </diagram>
</mxfile>
